<svg width="1200" height="1200" viewBox="0 0 1200 1200" xmlns="http://www.w3.org/2000/svg" fill="currentColor">
 <path d="m586.93 97.871c-38.102 103.44-77.977 177.42-119.83 223.04-17.723 19.262-18.168 18.602 7.3086 12.84 12.406-2.8789 32.785-5.7617 45.406-6.6484l22.598-1.332v412.64l-4.8711 1.1172c-2.8789 0.66016-29.016 4.6445-58.246 8.8555-47.184 7.0781-53.375 7.5234-55.598 4.4297-1.332-1.7773-3.1094-11.965-3.9961-22.598-1.9922-28.57-11.508-91.477-19.273-128.7-17.496-85.055-50.723-199.12-68.219-235.22-12.625-25.691-14.844-35.879-8.4258-37.211 2.2188-0.44531 13.957 2.4375 26.137 6.4336 11.965 3.9844 22.586 6.6484 23.258 5.9766 0.66016-0.66016-4.6562-6.6484-11.746-13.512-56.027-53.16-133.78-93.023-211.97-108.76-21.473-4.4062-23.465-4.4062-23.465-0.19531 0 1.7656 11.293 21.492 25.031 43.633 104.54 168.55 164.35 326.93 184.29 488.39 2.8789 22.367 7.5234 92.363 7.7539 112.3v6.4219l19.488-1.3203c10.633-0.67188 46.297-5.7617 79.078-11.293 33-5.543 66.887-10.633 75.301-11.293 8.6406-0.88672 17.723-1.7656 20.605-2.4375l4.8711-0.875-0.003906 146.17v146.2l57.59 0.003906h57.59v-291.5l20.16 1.7656c11.074 1.1172 46.738 6.2148 79.297 11.746 62.902 10.402 97.234 14.617 99 11.746 0.67188-0.88672 2.0039-21.266 3.3242-45.406 5.7461-118.73 28.344-220.38 75.086-337.33 30.574-76.859 66.012-145.3 119.17-231.01 11.285-17.953 20.371-34.129 20.371-35.895 0-4.2109-1.9922-4.2109-27.898 1.1055-60.48 12.406-134.45 47.184-181.85 85.5-18.168 14.617-38.762 34.332-37.223 35.879 0.67188 0.67188 10.859-1.9922 22.812-5.9766 35.438-11.965 37.656-8.8555 19.055 28.57-8.6406 17.941-16.836 39.648-26.797 73.094-33.672 112.3-52.5 200-60.695 284.18-1.5469 15.73-3.9844 29.891-5.3164 31.668-1.9922 2.8789-9.5156 2.2188-55.367-4.6445-29.242-4.2227-55.598-8.4258-58.703-9.0859l-5.5312-0.88672 0.66016-205.99 0.44531-205.99h13.957c14.844 0 46.297 4.6562 65.125 9.5156 10.402 2.8789 11.293 2.6641 9.5156-0.44531-0.875-2.0039-4.4297-5.9883-7.7539-9.0859-9.9727-9.0859-33.227-39.875-48.504-64.234-25.477-40.094-60.469-117.17-84.613-185.62-2.2227-6.1875-4.4336-11.5-5.0938-11.5-0.88672 0-6.6484 14.844-13.293 32.781z"/>
</svg>
